<svg width="28" height="32" viewBox="0 0 28 32" fill="none" xmlns="http://www.w3.org/2000/svg">
<path d="M25.8281 4.46875C26.7188 6.48438 27.2344 8.92188 27.2344 11.2656C27.2344 19.3281 22.0312 25.9375 14.6719 26.4531C10.875 26.875 8.01562 24.9062 6.46875 22.8438C4.07812 24.8594 3.1875 26.9219 3.09375 27.1094C2.76562 27.8594 1.92188 28.2344 1.125 27.9062C0.375 27.5781 0 26.7344 0.328125 25.9375C1.45312 23.2656 6.42188 16 18.2344 16C18.6094 16 18.9844 15.6719 18.9844 15.25C18.9844 14.875 18.6094 14.5 18.2344 14.5C12.0938 14.5 7.78125 16.3281 4.78125 18.4844C4.73438 18.1562 4.73438 17.8281 4.73438 17.5C4.73438 12.5312 8.76562 8.5 13.7344 8.5H17.4844C20.4375 8.5 23.0156 6.95312 24.4688 4.42188C24.7969 3.85938 25.5469 3.90625 25.8281 4.46875Z" fill="#34D399"/>
</svg>
